<?xml version="1.0" encoding="UTF-8"?>
<svg id="Capa_1" data-name="Capa 1" xmlns="http://www.w3.org/2000/svg" viewBox="0 0 141.73 116.27">
  <defs>
    <style>
      .cls-1 {
        fill: #fff;
      }
    </style>
  </defs>
  <path class="cls-1" d="M1.97,16.91c1.1-2.74,3.15-3.88,6.05-3.57,.31,.03,.63,.04,.94,0,3.21-.39,5.49,.83,6.78,3.84,.1,.24,.28,.46,.43,.68,.05,.07,.14,.1,.29,.2,2.74-2.62,5.53-5.21,8.22-7.9,1.36-1.36,2.87-2.04,4.8-1.94,1.57,.08,3.14,0,4.71,.02,2.39,.04,3.66,1.26,3.7,3.65,.05,2.82,.01,5.64,.01,8.89C46.03,9.08,57.05,3.32,70.78,3.29c13.78-.03,24.83,5.71,32.92,17.33,.06-.57,.12-.94,.13-1.3,.01-2.42-.02-4.84,.01-7.27,.04-2.57,1.26-3.79,3.81-3.82,1.84-.02,3.68,.02,5.52,0,1.48-.02,2.69,.52,3.74,1.55,2.79,2.73,5.6,5.43,8.54,8.29,.42-.69,.81-1.31,1.16-1.95,1.04-1.92,2.64-2.85,4.83-2.77,1.3,.04,2.6-.03,3.9,.04,2.41,.12,4.26,2.01,4.41,4.43,.02,.4,.01,.81,.01,1.21,0,29.83,0,59.65,0,89.48,0,3.3-1.15,4.46-4.42,4.46-5.79,0-11.57,0-17.36,0-1.59,0-2.41-.62-2.52-1.83-.12-1.35,.7-2.19,2.24-2.19,4.62-.02,9.24,0,13.86,0,1.33,0,2.67,0,4.08,0v-4.29H6.1v4.29h1.69c32.97,0,65.93,0,98.9,0,.49,0,.99-.02,1.48,.03,1.09,.1,1.72,.73,1.79,1.82,.08,1.09-.45,1.81-1.5,2.09-.43,.11-.89,.1-1.33,.1-33.64,0-67.28,0-100.92,.03-1.97,0-3.33-.73-4.24-2.41V16.91ZM6.04,100.41H135.64V34.96H6.04V100.41ZM103.98,30.73c-.18-1.14-.07-2.25-.53-3-1.52-2.48-3.12-4.93-4.91-7.22-6.29-8.04-14.67-12.3-24.78-13.09-10.19-.8-19.19,2.13-26.86,8.98-3.39,3.03-5.65,6.92-8.22,10.59-.83,1.18-.91,2.36-.64,3.75H103.98Zm28.57-.01c-.28-.34-.43-.55-.61-.72-5.89-5.71-11.77-11.43-17.67-17.13-.25-.24-.58-.54-.88-.54-1.82-.05-3.63-.03-5.4-.03V30.72h24.56Zm-122.71,.01h23.89V12.27c-1.46,0-2.81-.11-4.14,.04-.77,.08-1.66,.4-2.21,.91-4.25,3.98-8.48,8-12.63,12.09-1.78,1.76-3.37,3.71-4.91,5.43Zm3.43-9.63c-1.96-3.81-1.96-3.77-5.88-3.75-1.16,0-1.45,.45-1.42,1.52,.06,2.28,.02,4.57,.02,6.85,0,.68,0,1.37,0,2.34,2.59-2.48,4.92-4.71,7.28-6.97Zm115.27-.2c.19-.13,.38-.26,.57-.38,2.16,2.4,4.32,4.8,6.61,7.35,0-3.26,0-6.31,0-9.35,0-.68-.18-1.07-.95-1.15-3.74-.41-4.19-.2-6,3.06-.09,.15-.15,.32-.23,.48Z"/>
  <path class="cls-1" d="M70.86,40.23c17.49,0,34.98,.08,52.47-.05,4.62-.03,7.1,3.15,7.06,7.06-.14,13.68-.05,27.36-.05,41.04,0,4.41-2.4,6.85-6.8,6.85-35.12,0-70.23,0-105.35,0-4.4,0-6.81-2.44-6.81-6.85,0-13.77,0-27.54,0-41.31,0-4.34,2.39-6.74,6.73-6.75,17.58,0,35.16,0,52.74,0Zm-45.6,4.04c-2.53,0-4.81,0-7.1,0-2.12,0-2.74,.62-2.74,2.7,0,13.77,0,27.54,0,41.31,0,.31-.02,.63,.02,.94,.16,1.14,.87,1.67,1.97,1.87,1.1,.2,1.35-.46,1.8-1.27,.73-1.31,1.63-2.57,2.69-3.61,.68-.67,.97-1.24,.97-2.16-.04-5.56-.1-11.12,.03-16.68,.04-1.55,.32-3.34,1.14-4.58,1.04-1.55,1.29-3.05,1.2-4.77-.02-.45-.02-.9,.02-1.34,.11-1.22,.86-1.98,1.94-2.01,1.12-.03,1.94,.76,2.05,2.04,.06,.69,.07,1.39,.1,2h11.87c.49-2.3,1.6-4.06,3.59-5.21,2.02-1.17,4.14-1.29,6.31-.49,.79-1.34,1.48-2.59,2.24-3.81,1.23-1.99,3.04-2.97,5.38-2.99,2.82-.02,4.72,1.42,6,3.84,4.56-5.29,8.03-5.29,12.19-.01,.14-.18,.27-.35,.39-.53,2.98-4.58,8.6-4.47,11.37,.23,.63,1.07,1.26,2.15,1.87,3.2,5.14-1.1,7.93,.4,9.78,5.12,.12,.3,.62,.62,.95,.63,3.66,.04,7.33,.03,11.06,.03v-14.36H29.36c-.03,.51-.06,.94-.07,1.38-.01,.45,.01,.9-.02,1.35-.1,1.43-.82,2.17-2.05,2.15-1.18-.02-1.87-.74-1.95-2.11-.05-.88,0-1.77,0-2.84Zm89.58,25.66c0-.88,0-1.6,0-2.31-.01-3.37-1.49-4.87-4.82-4.87-26.1,0-52.2,0-78.3,0-.62,0-1.27,.03-1.86,.19-1.57,.42-2.63,1.45-2.85,3.06-.17,1.26-.03,2.57-.03,3.93H114.84Zm1.65-25.63c0,5.55,0,10.89,.02,16.22,0,.32,.18,.7,.39,.95,1.51,1.77,2,3.83,1.99,6.11-.04,5.56-.03,11.12,.02,16.68,0,.54,.24,1.26,.63,1.58,1.5,1.23,2.59,2.7,3.28,4.51,.13,.33,.67,.67,1.04,.7,1.69,.1,2.45-.79,2.45-2.73,0-13.77,0-27.54,0-41.31,0-.31,.03-.63-.02-.94-.16-.99-.7-1.73-1.73-1.76-2.63-.06-5.27-.02-8.06-.02Zm-40.19,41.71c3.64-2.39,7.24-2.39,10.87,0,3.61-2.4,7.26-2.39,10.89,0,3.67-2.42,7.32-2.36,10.78-.07,1.08-.48,1.98-.99,2.95-1.3,.96-.3,1.98-.4,2.97-.58v-3.2H26.98v2.97c2.06,.66,3.98,1.29,6.13,1.98,3.34-2.22,6.99-2.17,10.58,.2,3.67-2.4,7.28-2.36,10.87,0,3.65-2.42,7.3-2.37,10.88-.01,3.63-2.36,7.19-2.37,10.86,0Zm-49.34-9.36H114.76v-2.52H26.97v2.52Zm43.9-17.95c1.25,0,2.51-.08,3.75,.02,1.34,.11,1.53-.57,1.31-1.6-.1-.47-.28-.95-.52-1.37-.78-1.41-1.56-2.81-2.4-4.18-1.15-1.88-3.14-1.88-4.29,0-.84,1.37-1.64,2.76-2.4,4.18-.29,.54-.44,1.16-.56,1.77-.16,.82,.15,1.24,1.08,1.2,1.34-.06,2.68-.02,4.02-.01Zm-9.29,0c.14-1.08,.06-2.04,.4-2.83,.58-1.33,.23-2.38-.53-3.44-.21-.29-.35-.62-.54-.92-1.15-1.79-3.12-1.8-4.23,0-.87,1.41-1.7,2.84-2.46,4.31-.3,.58-.5,1.27-.5,1.91,0,.32,.55,.91,.87,.92,2.32,.08,4.64,.04,7,.04Zm18.7,0c1.94,0,3.98,0,6.03,0,1.85,0,2.29-.52,1.49-2.23-.87-1.85-1.91-3.65-3.04-5.35-.88-1.32-2.73-1.26-3.67,.03-.6,.83-1.09,1.74-1.57,2.65-.14,.27-.11,.67-.05,.99,.23,1.22,.49,2.43,.8,3.91Zm-26.56,32.36c-.3-.36-.62-.79-.98-1.17-2.08-2.2-5.15-2.18-7.23,.02-1.43,1.51-2.19,1.5-3.65-.03-1.88-1.98-4.82-2.2-6.76-.43-.55,.5-.94,1.16-1.3,1.61h19.92Zm34.08-.01h20.52c-.44-.42-.83-.77-1.19-1.14-2.1-2.19-5.16-2.2-7.24,0-1.45,1.53-2.2,1.53-3.65,0-2.08-2.2-5.14-2.19-7.24,0-.36,.38-.75,.73-1.2,1.15Zm-12.05,0c-4.69-3.79-5.39-3.79-9.69,0h9.69Zm-10.93,.01c-4.41-3.82-5.86-3.81-9.54,0h9.54Zm21.69-.03c-4.13-3.77-5.62-3.77-9.48,0h9.48Zm-54.31,.04c-1.41-1.39-2.63-2.8-4.69-2.83-1.99-.03-3.87,1.18-4.18,2.75,.13,.03,.25,.08,.38,.08,2.78,0,5.55,0,8.48,0Zm86.28-.08c-1.26-3.59-5.38-3.53-8.77,0h8.77Zm-26.32-32.44h4.04c-.96-1.84-2.23-2.35-4.04-1.72v1.72Zm-42.6,.08v-1.82c-1.92-.62-3.41,.07-3.92,1.82h3.92Z"/>
  <path class="cls-1" d="M52.33,22.74c.62,0,1.1,0,1.57,0,6.91,0,13.81,0,20.72,0,1.68,0,2.5,.64,2.51,1.94,0,1.02-.45,1.73-1.48,1.96-.48,.11-.98,.13-1.47,.13-8.57,0-17.13,0-25.7,0-.18,0-.36,0-.54,0-.96-.02-1.94-.27-2.13-1.26-.14-.73,.03-1.73,.47-2.31,2.85-3.78,6.46-6.69,10.71-8.8,13.14-6.51,29.1-2.98,38.26,8.47,.63,.79,1.23,1.59,.73,2.67-.52,1.13-1.53,1.25-2.61,1.24-2.65,0-5.29,0-7.94,0-.4,0-.81-.02-1.2-.1-1.16-.23-1.67-.99-1.58-2.13,.08-1.1,.74-1.73,1.83-1.77,1.6-.05,3.19-.01,4.95-.01-8.92-9.86-28.11-9.94-37.1-.02Z"/>
</svg>