<?xml version="1.0" encoding="UTF-8"?>
<svg id="Capa_1" data-name="Capa 1" xmlns="http://www.w3.org/2000/svg" viewBox="0 0 141.73 141.47">
  <defs>
    <style>
      .cls-1 {
        fill: #fff;
      }
    </style>
  </defs>
  <path class="cls-1" d="M139.49,65.81v10.99c-.39,.16-.25,.53-.28,.81-.34,3.02-.74,6.03-1.47,8.98-5.1,20.59-17.04,35.85-35.79,45.75-6.35,3.35-13.14,5.48-20.27,6.59-.03-.24-.08-.42-.08-.59,0-15.46,0-30.91-.03-46.37,0-.93,.41-.97,1.12-.97,4.38,.02,8.76,.01,13.13,.01,1.89,0,1.84,0,2.12-1.91,.82-5.55,1.63-11.1,2.56-16.63,.2-1.17-.09-1.33-1.14-1.32-5.54,.04-11.08,.02-16.62,.02-.64,0-1.19,.11-1.17-.91,.06-4.15-.06-8.31,.06-12.46,.15-5.05,2.59-8.4,6.82-9.61,1.59-.46,3.24-.62,4.89-.62,2.37,0,4.74-.03,7.1,.02,.74,.01,1-.17,1-.96-.03-5-.03-10.01,0-15.01,0-.7-.16-1.07-.91-1.16-6.42-.8-12.85-1.67-19.33-.82-5.88,.77-11.05,3.09-15.01,7.67-4.25,4.92-5.89,10.81-6.03,17.16-.11,5.13-.06,10.27,0,15.41,.01,1.09-.32,1.31-1.34,1.3-4.96-.05-9.92,0-14.87-.05-.99-.01-1.27,.22-1.26,1.24,.05,5.81,.06,11.61,0,17.42-.01,1.06,.34,1.23,1.29,1.22,5-.05,10.01,0,15.01-.04,.95,0,1.18,.26,1.18,1.19-.03,15.19-.03,30.38,0,45.56,0,.84,0,1.24-1.11,1.04-9.58-1.71-18.48-5.15-26.46-10.71C13.79,114.99,3.57,96.93,2.34,74.06c-.79-14.64,2.93-28.29,11.16-40.46C26.6,14.22,44.97,3.8,68.34,2.63c13.44-.67,26.09,2.54,37.58,9.58,18.33,11.24,29.31,27.52,32.82,48.79,.26,1.6,.18,3.26,.76,4.81Z"/>
</svg>