<?xml version="1.0" encoding="UTF-8"?>
<svg id="Capa_1" data-name="Capa 1" xmlns="http://www.w3.org/2000/svg" viewBox="0 0 141.73 141.47">
  <defs>
    <style>
      .cls-1 {
        fill: #fff;
      }
    </style>
  </defs>
  <path class="cls-1" d="M90.95,138.09H50.87c-.83-.07-1.65-.14-2.48-.22-4.89-.45-9.85-.54-14.65-1.44-10-1.87-18.18-6.8-23.68-15.61-3.92-6.29-5.6-13.29-6.13-20.61-.22-3.1-.35-6.21-.53-9.31,0-13.53,0-27.06,0-40.6,.07-.78,.19-1.56,.21-2.34,.13-5.32,.38-10.62,1.64-15.82C7.9,21.27,13.79,12.91,24.02,7.93c6.52-3.17,13.53-4.42,20.69-4.46,17.44-.12,34.88-.14,52.32,.03,4.14,.04,8.34,.62,12.38,1.55,11.84,2.71,20.48,9.48,25.16,20.9,2.59,6.31,3.47,12.96,3.54,19.71,.14,14.28,.26,28.55,.2,42.83-.03,6.49-.09,13.01-1.49,19.41-2.15,9.89-6.9,18.07-15.67,23.54-6.3,3.93-13.3,5.6-20.61,6.12-3.19,.23-6.39,.36-9.59,.53Zm35.5-67.54c-.09,0-.17,0-.26,0,0-5.62,.16-11.25-.04-16.86-.22-5.96-.32-11.98-1.3-17.83-1.58-9.51-7.21-15.88-16.62-18.64-4.47-1.31-9.07-1.63-13.69-1.67-13.27-.12-26.53-.24-39.8-.18-6.23,.03-12.49-.05-18.64,1.23-10.15,2.1-16.72,8.08-18.93,18.29-.86,3.96-1.26,8.08-1.32,12.14-.21,13.57-.31,27.14-.18,40.71,.05,5.86,.3,11.8,1.28,17.57,1.75,10.34,8.05,16.87,18.38,19.07,3.88,.83,7.91,1.22,11.88,1.29,13.22,.22,26.44,.28,39.66,.22,6.27-.03,12.58,.05,18.77-1.22,8.45-1.73,14.71-6.2,17.88-14.46,1.33-3.47,2.08-7.09,2.2-10.79,.3-9.61,.49-19.23,.73-28.84Z"/>
  <path class="cls-1" d="M70.95,105.25c-19.08,.05-34.57-15.36-34.68-34.54-.12-19.11,15.4-34.69,34.6-34.75,19.15-.05,34.71,15.5,34.68,34.67-.03,19.14-15.44,34.56-34.6,34.62Zm-.05-12.17c12.43,0,22.44-9.97,22.48-22.4,.04-12.49-9.98-22.54-22.47-22.54-12.44,0-22.44,9.96-22.48,22.4-.04,12.48,9.98,22.54,22.46,22.54Z"/>
  <path class="cls-1" d="M106.93,26.51c4.54,0,8.11,3.59,8.08,8.13-.03,4.47-3.61,8.02-8.07,8.03-4.5,0-8.11-3.64-8.09-8.15,.02-4.45,3.61-8.01,8.08-8.01Z"/>
</svg>