<?xml version="1.0" encoding="UTF-8"?>
<svg id="Capa_1" data-name="Capa 1" xmlns="http://www.w3.org/2000/svg" viewBox="0 0 132.29 135.69">
  <defs>
    <style>
      .cls-1 {
        fill: #fff;
      }
    </style>
  </defs>
  <path class="cls-1" d="M108.9,110.26c3.85,0,7.75-.03,11.64,.02,1.06,.01,2.15,.1,3.16,.4,3.47,1.05,5.62,4.56,5.09,8.13-.54,3.65-3.48,6.35-7.13,6.42-3.76,.07-7.52,.02-11.29,.02-.5,0-1.01,0-1.53,0-.24,.74-.41,1.42-.67,2.06-1.26,3.08-4.11,4.9-7.73,4.9-16.81,0-33.63,0-50.44,0-5.95,0-11.89,0-17.84,0-4.48,0-7.1-1.9-8.42-6.2-.26-.85-.77-.76-1.37-.76-3.9,0-7.8,.04-11.7-.02-3.71-.06-6.72-2.83-7.2-6.5-.46-3.55,1.76-7.08,5.21-8.08,.96-.28,2.01-.36,3.02-.37,3.58-.04,7.15-.03,10.73,0,.74,0,1.13-.14,1.36-.97,1-3.65,3.82-5.82,7.63-5.97,1.3-.05,2.6-.02,3.9-.02,21.13,0,42.27,0,63.4,0,6.16,0,7.88,1.16,10.17,6.95Zm-85.44,4.5c-4.36,0-8.57-.07-12.78,.03-1.73,.04-2.84,1.44-2.78,3.04,.06,1.69,1.29,2.92,3.06,2.94,2.97,.04,5.93,.01,8.9,.01,1.19,0,2.37,0,3.59,0v-6.03Zm85.41-.01v6.05c4.19,0,8.31,.02,12.42-.01,1.8-.01,3.03-1.23,3.09-2.9,.06-1.69-1.09-3.07-2.88-3.1-4.16-.09-8.33-.03-12.63-.03Zm-47.33,10.51c2.55,0,5.11,.01,7.66,0,1.65-.01,2.61-.86,2.61-2.24,0-1.37-.98-2.21-2.63-2.21-5.06-.01-10.12-.01-15.18,0-1.7,0-2.64,.79-2.67,2.17-.03,1.45,.92,2.28,2.69,2.29,2.51,.01,5.01,0,7.52,0Zm-17.08-4.57s-.01,.07-.02,.11c-.28,0-.55-.01-.83,0-1.43,.07-2.32,.92-2.33,2.21,0,1.29,.87,2.17,2.3,2.24,.69,.03,1.5,.21,2.05-.08,.73-.39,1.49-1.06,1.8-1.8,.38-.91-.15-1.84-1.09-2.27-.57-.25-1.24-.28-1.86-.4Z"/>
  <path class="cls-1" d="M53.15,7.93c2.63-1.91,5.48-3.31,8.67-3.96,5.96-1.2,11.43-.04,16.42,3.38,.68,.47,1.12,.47,1.8,0,7.43-5.13,16.76-5.14,24.17-.07,7.14,4.88,10.61,13.74,8.7,22.23-1.91,8.48-9.03,15.04-17.74,16.33-.14,.02-.27,.06-.64,.15v1.55c0,13.38,0,26.75,0,40.13,0,2.65-.64,3.3-3.27,3.3-16.77,0-33.53,0-50.3,0-2.54,0-3.2-.66-3.2-3.22,0-13.38-.02-26.75,.03-40.13,0-1.21-.2-1.7-1.55-1.95-10.2-1.94-17.53-10.89-17.4-21.05,.14-10.3,7.49-19.01,17.72-20.8,5.54-.97,10.7,.22,15.41,3.31,.39,.25,.76,.52,1.19,.81Zm36.92,65.89v-1.71c0-9.15,0-18.3,0-27.45,0-2.35,.58-2.94,2.93-3.06,9.04-.46,16.44-8.4,15.97-17.3-.37-6.91-3.73-12.04-10.05-14.86-6.28-2.8-12.24-1.76-17.61,2.53-1.88,1.5-2.49,1.53-4.33-.01-6.33-5.31-15.31-5.32-21.63-.03-1.91,1.59-2.47,1.58-4.43-.02-3.75-3.05-8.01-4.39-12.84-3.79-8.56,1.05-15.09,8.62-14.78,17.11,.32,8.76,7.28,15.92,15.94,16.37,2.44,.13,2.98,.69,2.98,3.15,0,9.15,0,18.3,0,27.45,0,.53,0,1.07,0,1.62h47.85Z"/>
  <path class="cls-1" d="M68.37,54.71c0,3.48,0,6.95,0,10.43,0,1.76-.85,2.73-2.28,2.7-1.37-.03-2.17-.98-2.18-2.66,0-7,0-14,0-21,0-1.66,.83-2.61,2.2-2.63,1.39-.01,2.24,.94,2.25,2.58,.02,3.52,0,7.05,0,10.57Z"/>
  <path class="cls-1" d="M51.31,54.66c0-3.44,0-6.87,0-10.31,0-1.82,.76-2.78,2.17-2.8,1.43-.02,2.28,.96,2.28,2.72,.01,6.97,.02,13.93,0,20.9,0,1.68-.84,2.64-2.2,2.67-1.42,.02-2.24-.94-2.24-2.73-.01-3.48,0-6.97,0-10.45Z"/>
  <path class="cls-1" d="M80.98,54.75c0,3.44,0,6.87,0,10.31,0,1.81-.78,2.77-2.2,2.77-1.41,0-2.25-.98-2.25-2.76-.01-6.97,0-13.94,0-20.9,0-1.16,.36-2.15,1.56-2.52,1.03-.32,1.99-.07,2.53,.92,.27,.5,.35,1.15,.36,1.73,.03,3.48,.02,6.97,.02,10.45Z"/>
</svg>